<svg id="Layer_1" data-name="Layer 1" xmlns="http://www.w3.org/2000/svg" viewBox="0 0 512 512"><title>dollar</title><path d="M0,256C0,114.61,114.61,0,256,0S512,114.63,512,256,397.38,512,256,512,0,397.39,0,256Z" fill="#2b77c1"/><path d="M224.27,318.43A41.24,41.24,0,0,0,247,330.83V269.13c-1-.39-2.32-.84-4-1.33s-3.49-.93-5.46-1.33q-10.93-3-21.55-6.94a70.35,70.35,0,0,1-19-10.62,49,49,0,0,1-13.43-16.53q-5-9.9-5-24.66,0-15,5.75-26.57a59,59,0,0,1,15.2-19.33,69.56,69.56,0,0,1,21.84-12.1A98.45,98.45,0,0,1,247,144.58V121.85h17.41v22.73a106.56,106.56,0,0,1,24.95,5.75,67.34,67.34,0,0,1,20.51,11.81,58.53,58.53,0,0,1,14.46,18.75q5.6,11.21,6.5,26.57H288.92a31.12,31.12,0,0,0-7.39-20.08q-7.08-8.25-17.12-8.27v52.25q3.54.88,7.23,1.77c2.47.59,5.06,1.29,7.83,2.08q21.84,5.9,33.65,14.61T330.53,268a47,47,0,0,1,6.64,18.9,156.72,156.72,0,0,1,1,16.82q0,6.49-3.24,16.38T323.3,339.39q-8.41,9.44-22.58,16.82t-36.3,8.85v25.09H247V365.06q-33.06-2.36-51.65-20.36T173.8,291.87h41.62Q215.12,308.69,224.27,318.43Zm13-137.83a25.63,25.63,0,0,0-8.56,4.57,22.07,22.07,0,0,0-6,7.67,24.4,24.4,0,0,0-2.21,10.79q0,9.73,6.19,15T247,227.22V179.11A32.44,32.44,0,0,0,237.26,180.6Zm38.23,147.73a34.87,34.87,0,0,0,10.32-5.47,29.06,29.06,0,0,0,7.53-8.7,24.31,24.31,0,0,0,2.95-12.25q0-11.52-7.22-17.27t-24.65-10.47v56.67A54,54,0,0,0,275.49,328.32Z" fill="#fff"/></svg>